<svg width="139" height="102" viewBox="0 0 139 102" fill="none" xmlns="http://www.w3.org/2000/svg">
<path d="M25.487 0L0 55.2533V56H20.4669L24.3285 46.6667H47.8847C53.1366 52.64 61.9155 55.3778 65.6484 56H82.2536V38.08C80.4 40.824 69.8963 41.0667 69.5101 41.0667C67.5792 41.0667 63.7948 38.8267 62.5591 37.3333C55.1447 28.0747 60.4995 20.2844 64.1037 17.5467V36.5867C69.9735 41.9627 78.6494 38.8267 82.2536 36.5867V31.7333L94.6109 50.4H103.879L116.236 30.6133V56H134V0H117.395L99.245 29.12L80.3228 0H62.5591C42.4784 5.97333 39.0029 21.4044 39.7752 28.3733H31.2795L35.1412 18.2933L38.6167 25.3867C38.6167 14.9333 45.1816 8.58667 48.2709 5.22667L45.1816 0H25.487Z" fill="white"/>
<path d="M49.8156 56L47.8847 48.16C47.8847 48.16 52.1326 53.3867 59.8559 56H49.8156Z" fill="white"/>
<path d="M42.642 80.112C41.8954 80.112 41.2047 79.9907 40.57 79.748C39.9447 79.496 39.3987 79.146 38.932 78.698C38.4747 78.2407 38.1154 77.7087 37.854 77.102C37.5927 76.4953 37.462 75.828 37.462 75.1C37.462 74.372 37.5927 73.7047 37.854 73.098C38.1154 72.4913 38.4794 71.964 38.946 71.516C39.4127 71.0587 39.9587 70.7087 40.584 70.466C41.2187 70.214 41.9094 70.088 42.656 70.088C43.412 70.088 44.1074 70.2187 44.742 70.48C45.386 70.732 45.932 71.11 46.38 71.614L45.47 72.496C45.0967 72.104 44.6767 71.8147 44.21 71.628C43.7434 71.432 43.244 71.334 42.712 71.334C42.1614 71.334 41.648 71.4273 41.172 71.614C40.7054 71.8007 40.2994 72.062 39.954 72.398C39.6087 72.734 39.338 73.1353 39.142 73.602C38.9554 74.0593 38.862 74.5587 38.862 75.1C38.862 75.6413 38.9554 76.1453 39.142 76.612C39.338 77.0693 39.6087 77.466 39.954 77.802C40.2994 78.138 40.7054 78.3993 41.172 78.586C41.648 78.7727 42.1614 78.866 42.712 78.866C43.244 78.866 43.7434 78.7727 44.21 78.586C44.6767 78.39 45.0967 78.0913 45.47 77.69L46.38 78.572C45.932 79.076 45.386 79.4587 44.742 79.72C44.1074 79.9813 43.4074 80.112 42.642 80.112ZM51.0448 80.084C50.2981 80.084 49.6354 79.9207 49.0568 79.594C48.4781 79.2673 48.0208 78.8193 47.6848 78.25C47.3488 77.6713 47.1808 77.018 47.1808 76.29C47.1808 75.5527 47.3488 74.8993 47.6848 74.33C48.0208 73.7607 48.4781 73.3173 49.0568 73C49.6354 72.6733 50.2981 72.51 51.0448 72.51C51.7821 72.51 52.4401 72.6733 53.0188 73C53.6068 73.3173 54.0641 73.7607 54.3908 74.33C54.7268 74.89 54.8948 75.5433 54.8948 76.29C54.8948 77.0273 54.7268 77.6807 54.3908 78.25C54.0641 78.8193 53.6068 79.2673 53.0188 79.594C52.4401 79.9207 51.7821 80.084 51.0448 80.084ZM51.0448 78.908C51.5208 78.908 51.9454 78.8007 52.3188 78.586C52.7014 78.3713 53.0001 78.068 53.2148 77.676C53.4294 77.2747 53.5368 76.8127 53.5368 76.29C53.5368 75.758 53.4294 75.3007 53.2148 74.918C53.0001 74.526 52.7014 74.2227 52.3188 74.008C51.9454 73.7933 51.5208 73.686 51.0448 73.686C50.5688 73.686 50.1441 73.7933 49.7708 74.008C49.3974 74.2227 49.0988 74.526 48.8748 74.918C48.6508 75.3007 48.5388 75.758 48.5388 76.29C48.5388 76.8127 48.6508 77.2747 48.8748 77.676C49.0988 78.068 49.3974 78.3713 49.7708 78.586C50.1441 78.8007 50.5688 78.908 51.0448 78.908ZM60.7155 72.51C61.3222 72.51 61.8542 72.6267 62.3115 72.86C62.7782 73.0933 63.1422 73.448 63.4035 73.924C63.6648 74.4 63.7955 75.002 63.7955 75.73V80H62.4515V75.884C62.4515 75.1653 62.2742 74.624 61.9195 74.26C61.5742 73.896 61.0842 73.714 60.4495 73.714C59.9735 73.714 59.5582 73.8073 59.2035 73.994C58.8488 74.1807 58.5735 74.456 58.3775 74.82C58.1908 75.184 58.0975 75.6367 58.0975 76.178V80H56.7535V72.58H58.0415V74.582L57.8315 74.05C58.0742 73.5647 58.4475 73.1867 58.9515 72.916C59.4555 72.6453 60.0435 72.51 60.7155 72.51ZM69.5168 80.084C68.7608 80.084 68.0841 79.9207 67.4868 79.594C66.8988 79.2673 66.4368 78.8193 66.1008 78.25C65.7648 77.6807 65.5968 77.0273 65.5968 76.29C65.5968 75.5527 65.7648 74.8993 66.1008 74.33C66.4368 73.7607 66.8988 73.3173 67.4868 73C68.0841 72.6733 68.7608 72.51 69.5168 72.51C70.1888 72.51 70.7861 72.6453 71.3088 72.916C71.8408 73.1773 72.2515 73.5693 72.5408 74.092L71.5188 74.75C71.2761 74.386 70.9775 74.12 70.6228 73.952C70.2775 73.7747 69.9041 73.686 69.5028 73.686C69.0175 73.686 68.5835 73.7933 68.2008 74.008C67.8181 74.2227 67.5148 74.526 67.2908 74.918C67.0668 75.3007 66.9548 75.758 66.9548 76.29C66.9548 76.822 67.0668 77.284 67.2908 77.676C67.5148 78.068 67.8181 78.3713 68.2008 78.586C68.5835 78.8007 69.0175 78.908 69.5028 78.908C69.9041 78.908 70.2775 78.824 70.6228 78.656C70.9775 78.4787 71.2761 78.208 71.5188 77.844L72.5408 78.488C72.2515 79.0013 71.8408 79.398 71.3088 79.678C70.7861 79.9487 70.1888 80.084 69.5168 80.084ZM74.1851 80V72.58H75.5291V80H74.1851ZM74.8571 71.152C74.5958 71.152 74.3765 71.068 74.1991 70.9C74.0311 70.732 73.9471 70.5267 73.9471 70.284C73.9471 70.032 74.0311 69.822 74.1991 69.654C74.3765 69.486 74.5958 69.402 74.8571 69.402C75.1185 69.402 75.3331 69.486 75.5011 69.654C75.6785 69.8127 75.7671 70.0133 75.7671 70.256C75.7671 70.508 75.6831 70.7227 75.5151 70.9C75.3471 71.068 75.1278 71.152 74.8571 71.152ZM81.3993 80.084C80.606 80.084 79.906 79.9207 79.2993 79.594C78.702 79.2673 78.2353 78.8193 77.8993 78.25C77.5726 77.6807 77.4093 77.0273 77.4093 76.29C77.4093 75.5527 77.568 74.8993 77.8853 74.33C78.212 73.7607 78.6553 73.3173 79.2153 73C79.7846 72.6733 80.424 72.51 81.1333 72.51C81.852 72.51 82.4866 72.6687 83.0373 72.986C83.588 73.3033 84.0173 73.7513 84.3253 74.33C84.6426 74.8993 84.8013 75.5667 84.8013 76.332C84.8013 76.388 84.7966 76.4533 84.7873 76.528C84.7873 76.6027 84.7826 76.6727 84.7733 76.738H78.4593V75.772H84.0733L83.5273 76.108C83.5366 75.632 83.4386 75.2073 83.2333 74.834C83.028 74.4607 82.7433 74.1713 82.3793 73.966C82.0246 73.7513 81.6093 73.644 81.1333 73.644C80.6666 73.644 80.2513 73.7513 79.8873 73.966C79.5233 74.1713 79.2386 74.4653 79.0333 74.848C78.828 75.2213 78.7253 75.6507 78.7253 76.136V76.36C78.7253 76.8547 78.8373 77.298 79.0613 77.69C79.2946 78.0727 79.6166 78.3713 80.0273 78.586C80.438 78.8007 80.9093 78.908 81.4413 78.908C81.88 78.908 82.2766 78.8333 82.6313 78.684C82.9953 78.5347 83.3126 78.3107 83.5833 78.012L84.3253 78.88C83.9893 79.272 83.5693 79.5707 83.0653 79.776C82.5706 79.9813 82.0153 80.084 81.3993 80.084ZM86.6676 80V72.58H87.9556V74.596L87.8296 74.092C88.0349 73.5787 88.3802 73.1867 88.8656 72.916C89.3509 72.6453 89.9482 72.51 90.6576 72.51V73.812C90.6016 73.8027 90.5456 73.798 90.4896 73.798C90.4429 73.798 90.3962 73.798 90.3496 73.798C89.6309 73.798 89.0616 74.0127 88.6416 74.442C88.2216 74.8713 88.0116 75.492 88.0116 76.304V80H86.6676ZM95.4937 82.8C94.8123 82.8 94.1497 82.702 93.5057 82.506C92.871 82.3193 92.353 82.0487 91.9517 81.694L92.5957 80.658C92.941 80.9567 93.3657 81.19 93.8697 81.358C94.3737 81.5353 94.901 81.624 95.4517 81.624C96.329 81.624 96.973 81.4187 97.3837 81.008C97.7943 80.5973 97.9997 79.972 97.9997 79.132V77.564L98.1397 76.094L98.0697 74.61V72.58H99.3437V78.992C99.3437 80.2987 99.017 81.26 98.3637 81.876C97.7103 82.492 96.7537 82.8 95.4937 82.8ZM95.3257 79.692C94.607 79.692 93.963 79.5427 93.3937 79.244C92.8337 78.936 92.3857 78.5113 92.0497 77.97C91.723 77.4287 91.5597 76.8033 91.5597 76.094C91.5597 75.3753 91.723 74.75 92.0497 74.218C92.3857 73.6767 92.8337 73.2567 93.3937 72.958C93.963 72.6593 94.607 72.51 95.3257 72.51C95.9603 72.51 96.539 72.6407 97.0617 72.902C97.5843 73.154 97.9997 73.546 98.3077 74.078C98.625 74.61 98.7837 75.282 98.7837 76.094C98.7837 76.8967 98.625 77.564 98.3077 78.096C97.9997 78.628 97.5843 79.0293 97.0617 79.3C96.539 79.5613 95.9603 79.692 95.3257 79.692ZM95.4797 78.516C95.9743 78.516 96.413 78.4133 96.7957 78.208C97.1783 78.0027 97.477 77.718 97.6917 77.354C97.9157 76.99 98.0277 76.57 98.0277 76.094C98.0277 75.618 97.9157 75.198 97.6917 74.834C97.477 74.47 97.1783 74.19 96.7957 73.994C96.413 73.7887 95.9743 73.686 95.4797 73.686C94.985 73.686 94.5417 73.7887 94.1497 73.994C93.767 74.19 93.4637 74.47 93.2397 74.834C93.025 75.198 92.9177 75.618 92.9177 76.094C92.9177 76.57 93.025 76.99 93.2397 77.354C93.4637 77.718 93.767 78.0027 94.1497 78.208C94.5417 78.4133 94.985 78.516 95.4797 78.516ZM105.216 80.084C104.422 80.084 103.722 79.9207 103.116 79.594C102.518 79.2673 102.052 78.8193 101.716 78.25C101.389 77.6807 101.226 77.0273 101.226 76.29C101.226 75.5527 101.384 74.8993 101.702 74.33C102.028 73.7607 102.472 73.3173 103.032 73C103.601 72.6733 104.24 72.51 104.95 72.51C105.668 72.51 106.303 72.6687 106.854 72.986C107.404 73.3033 107.834 73.7513 108.142 74.33C108.459 74.8993 108.618 75.5667 108.618 76.332C108.618 76.388 108.613 76.4533 108.604 76.528C108.604 76.6027 108.599 76.6727 108.59 76.738H102.276V75.772H107.89L107.344 76.108C107.353 75.632 107.255 75.2073 107.05 74.834C106.844 74.4607 106.56 74.1713 106.196 73.966C105.841 73.7513 105.426 73.644 104.95 73.644C104.483 73.644 104.068 73.7513 103.704 73.966C103.34 74.1713 103.055 74.4653 102.85 74.848C102.644 75.2213 102.542 75.6507 102.542 76.136V76.36C102.542 76.8547 102.654 77.298 102.878 77.69C103.111 78.0727 103.433 78.3713 103.844 78.586C104.254 78.8007 104.726 78.908 105.258 78.908C105.696 78.908 106.093 78.8333 106.448 78.684C106.812 78.5347 107.129 78.3107 107.4 78.012L108.142 78.88C107.806 79.272 107.386 79.5707 106.882 79.776C106.387 79.9813 105.832 80.084 105.216 80.084ZM14.7866 98.112C14.0399 98.112 13.3446 97.986 12.7006 97.734C12.0659 97.482 11.5152 97.132 11.0486 96.684C10.5819 96.2267 10.2179 95.6947 9.95658 95.088C9.69524 94.4813 9.56458 93.8187 9.56458 93.1C9.56458 92.3813 9.69524 91.7187 9.95658 91.112C10.2179 90.5053 10.5819 89.978 11.0486 89.53C11.5152 89.0727 12.0659 88.718 12.7006 88.466C13.3352 88.214 14.0306 88.088 14.7866 88.088C15.5332 88.088 16.2192 88.214 16.8446 88.466C17.4792 88.7087 18.0299 89.0587 18.4966 89.516C18.9726 89.964 19.3366 90.4913 19.5886 91.098C19.8499 91.7047 19.9806 92.372 19.9806 93.1C19.9806 93.828 19.8499 94.4953 19.5886 95.102C19.3366 95.7087 18.9726 96.2407 18.4966 96.698C18.0299 97.146 17.4792 97.496 16.8446 97.748C16.2192 97.9907 15.5332 98.112 14.7866 98.112ZM14.7866 96.866C15.3279 96.866 15.8272 96.7727 16.2846 96.586C16.7512 96.3993 17.1526 96.138 17.4886 95.802C17.8339 95.4567 18.0999 95.0553 18.2866 94.598C18.4826 94.1407 18.5806 93.6413 18.5806 93.1C18.5806 92.5587 18.4826 92.0593 18.2866 91.602C18.0999 91.1447 17.8339 90.748 17.4886 90.412C17.1526 90.0667 16.7512 89.8007 16.2846 89.614C15.8272 89.4273 15.3279 89.334 14.7866 89.334C14.2359 89.334 13.7272 89.4273 13.2606 89.614C12.8032 89.8007 12.4019 90.0667 12.0566 90.412C11.7112 90.748 11.4406 91.1447 11.2446 91.602C11.0579 92.0593 10.9646 92.5587 10.9646 93.1C10.9646 93.6413 11.0579 94.1407 11.2446 94.598C11.4406 95.0553 11.7112 95.4567 12.0566 95.802C12.4019 96.138 12.8032 96.3993 13.2606 96.586C13.7272 96.7727 14.2359 96.866 14.7866 96.866ZM25.8584 98.084C25.2424 98.084 24.6777 97.944 24.1644 97.664C23.6604 97.3747 23.2544 96.95 22.9464 96.39C22.6477 95.83 22.4984 95.13 22.4984 94.29C22.4984 93.45 22.6431 92.75 22.9324 92.19C23.2311 91.63 23.6324 91.21 24.1364 90.93C24.6497 90.65 25.2237 90.51 25.8584 90.51C26.5864 90.51 27.2304 90.6687 27.7904 90.986C28.3504 91.3033 28.7937 91.7467 29.1204 92.316C29.4471 92.876 29.6104 93.534 29.6104 94.29C29.6104 95.046 29.4471 95.7087 29.1204 96.278C28.7937 96.8473 28.3504 97.2907 27.7904 97.608C27.2304 97.9253 26.5864 98.084 25.8584 98.084ZM21.9244 100.716V90.58H23.2124V92.582L23.1284 94.304L23.2684 96.026V100.716H21.9244ZM25.7464 96.908C26.2224 96.908 26.6471 96.8007 27.0204 96.586C27.4031 96.3713 27.7017 96.068 27.9164 95.676C28.1404 95.2747 28.2524 94.8127 28.2524 94.29C28.2524 93.758 28.1404 93.3007 27.9164 92.918C27.7017 92.526 27.4031 92.2227 27.0204 92.008C26.6471 91.7933 26.2224 91.686 25.7464 91.686C25.2797 91.686 24.8551 91.7933 24.4724 92.008C24.0991 92.2227 23.8004 92.526 23.5764 92.918C23.3617 93.3007 23.2544 93.758 23.2544 94.29C23.2544 94.8127 23.3617 95.2747 23.5764 95.676C23.8004 96.068 24.0991 96.3713 24.4724 96.586C24.8551 96.8007 25.2797 96.908 25.7464 96.908ZM34.7714 98.084C33.978 98.084 33.278 97.9207 32.6714 97.594C32.074 97.2673 31.6074 96.8193 31.2714 96.25C30.9447 95.6807 30.7814 95.0273 30.7814 94.29C30.7814 93.5527 30.94 92.8993 31.2574 92.33C31.584 91.7607 32.0274 91.3173 32.5874 91C33.1567 90.6733 33.796 90.51 34.5054 90.51C35.224 90.51 35.8587 90.6687 36.4094 90.986C36.96 91.3033 37.3894 91.7513 37.6974 92.33C38.0147 92.8993 38.1734 93.5667 38.1734 94.332C38.1734 94.388 38.1687 94.4533 38.1594 94.528C38.1594 94.6027 38.1547 94.6727 38.1454 94.738H31.8314V93.772H37.4454L36.8994 94.108C36.9087 93.632 36.8107 93.2073 36.6054 92.834C36.4 92.4607 36.1154 92.1713 35.7514 91.966C35.3967 91.7513 34.9814 91.644 34.5054 91.644C34.0387 91.644 33.6234 91.7513 33.2594 91.966C32.8954 92.1713 32.6107 92.4653 32.4054 92.848C32.2 93.2213 32.0974 93.6507 32.0974 94.136V94.36C32.0974 94.8547 32.2094 95.298 32.4334 95.69C32.6667 96.0727 32.9887 96.3713 33.3994 96.586C33.81 96.8007 34.2814 96.908 34.8134 96.908C35.252 96.908 35.6487 96.8333 36.0034 96.684C36.3674 96.5347 36.6847 96.3107 36.9554 96.012L37.6974 96.88C37.3614 97.272 36.9414 97.5707 36.4374 97.776C35.9427 97.9813 35.3874 98.084 34.7714 98.084ZM40.0396 98V90.58H41.3276V92.596L41.2016 92.092C41.407 91.5787 41.7523 91.1867 42.2376 90.916C42.723 90.6453 43.3203 90.51 44.0296 90.51V91.812C43.9736 91.8027 43.9176 91.798 43.8616 91.798C43.815 91.798 43.7683 91.798 43.7216 91.798C43.003 91.798 42.4336 92.0127 42.0136 92.442C41.5936 92.8713 41.3836 93.492 41.3836 94.304V98H40.0396ZM49.7452 98V96.432L49.6752 96.138V93.464C49.6752 92.8947 49.5072 92.456 49.1712 92.148C48.8446 91.8307 48.3499 91.672 47.6872 91.672C47.2486 91.672 46.8192 91.7467 46.3992 91.896C45.9792 92.036 45.6246 92.2273 45.3352 92.47L44.7752 91.462C45.1579 91.154 45.6152 90.9207 46.1472 90.762C46.6886 90.594 47.2532 90.51 47.8412 90.51C48.8586 90.51 49.6426 90.7573 50.1932 91.252C50.7439 91.7467 51.0192 92.5027 51.0192 93.52V98H49.7452ZM47.3092 98.084C46.7586 98.084 46.2732 97.9907 45.8532 97.804C45.4426 97.6173 45.1252 97.3607 44.9012 97.034C44.6772 96.698 44.5652 96.32 44.5652 95.9C44.5652 95.4987 44.6586 95.1347 44.8452 94.808C45.0412 94.4813 45.3539 94.22 45.7832 94.024C46.2219 93.828 46.8099 93.73 47.5472 93.73H49.8992V94.696H47.6032C46.9312 94.696 46.4786 94.808 46.2452 95.032C46.0119 95.256 45.8952 95.5267 45.8952 95.844C45.8952 96.208 46.0399 96.502 46.3292 96.726C46.6186 96.9407 47.0199 97.048 47.5332 97.048C48.0372 97.048 48.4759 96.936 48.8492 96.712C49.2319 96.488 49.5072 96.1613 49.6752 95.732L49.9412 96.656C49.7639 97.0947 49.4512 97.4447 49.0032 97.706C48.5552 97.958 47.9906 98.084 47.3092 98.084ZM56.0544 98.084C55.3078 98.084 54.7291 97.8833 54.3184 97.482C53.9078 97.0807 53.7024 96.5067 53.7024 95.76V88.956H55.0464V95.704C55.0464 96.1053 55.1444 96.4133 55.3404 96.628C55.5458 96.8427 55.8351 96.95 56.2084 96.95C56.6284 96.95 56.9784 96.8333 57.2584 96.6L57.6784 97.566C57.4731 97.7433 57.2258 97.874 56.9364 97.958C56.6564 98.042 56.3624 98.084 56.0544 98.084ZM52.4424 91.686V90.58H57.1744V91.686H52.4424ZM59.3033 98V90.58H60.6473V98H59.3033ZM59.9753 89.152C59.714 89.152 59.4946 89.068 59.3173 88.9C59.1493 88.732 59.0653 88.5267 59.0653 88.284C59.0653 88.032 59.1493 87.822 59.3173 87.654C59.4946 87.486 59.714 87.402 59.9753 87.402C60.2366 87.402 60.4513 87.486 60.6193 87.654C60.7966 87.8127 60.8853 88.0133 60.8853 88.256C60.8853 88.508 60.8013 88.7227 60.6333 88.9C60.4653 89.068 60.246 89.152 59.9753 89.152ZM67.1755 90.51C67.7821 90.51 68.3141 90.6267 68.7715 90.86C69.2381 91.0933 69.6021 91.448 69.8635 91.924C70.1248 92.4 70.2555 93.002 70.2555 93.73V98H68.9115V93.884C68.9115 93.1653 68.7341 92.624 68.3795 92.26C68.0341 91.896 67.5441 91.714 66.9095 91.714C66.4335 91.714 66.0181 91.8073 65.6635 91.994C65.3088 92.1807 65.0335 92.456 64.8375 92.82C64.6508 93.184 64.5575 93.6367 64.5575 94.178V98H63.2135V90.58H64.5015V92.582L64.2915 92.05C64.5341 91.5647 64.9075 91.1867 65.4115 90.916C65.9155 90.6453 66.5035 90.51 67.1755 90.51ZM75.9908 100.8C75.3094 100.8 74.6468 100.702 74.0028 100.506C73.3681 100.319 72.8501 100.049 72.4488 99.694L73.0928 98.658C73.4381 98.9567 73.8628 99.19 74.3668 99.358C74.8708 99.5353 75.3981 99.624 75.9488 99.624C76.8261 99.624 77.4701 99.4187 77.8808 99.008C78.2914 98.5973 78.4968 97.972 78.4968 97.132V95.564L78.6368 94.094L78.5668 92.61V90.58H79.8408V96.992C79.8408 98.2987 79.5141 99.26 78.8607 99.876C78.2074 100.492 77.2508 100.8 75.9908 100.8ZM75.8228 97.692C75.1041 97.692 74.4601 97.5427 73.8908 97.244C73.3308 96.936 72.8828 96.5113 72.5468 95.97C72.2201 95.4287 72.0568 94.8033 72.0568 94.094C72.0568 93.3753 72.2201 92.75 72.5468 92.218C72.8828 91.6767 73.3308 91.2567 73.8908 90.958C74.4601 90.6593 75.1041 90.51 75.8228 90.51C76.4574 90.51 77.0361 90.6407 77.5588 90.902C78.0814 91.154 78.4968 91.546 78.8048 92.078C79.1221 92.61 79.2808 93.282 79.2808 94.094C79.2808 94.8967 79.1221 95.564 78.8048 96.096C78.4968 96.628 78.0814 97.0293 77.5588 97.3C77.0361 97.5613 76.4574 97.692 75.8228 97.692ZM75.9768 96.516C76.4714 96.516 76.9101 96.4133 77.2928 96.208C77.6754 96.0027 77.9741 95.718 78.1888 95.354C78.4128 94.99 78.5248 94.57 78.5248 94.094C78.5248 93.618 78.4128 93.198 78.1888 92.834C77.9741 92.47 77.6754 92.19 77.2928 91.994C76.9101 91.7887 76.4714 91.686 75.9768 91.686C75.4821 91.686 75.0388 91.7887 74.6468 91.994C74.2641 92.19 73.9608 92.47 73.7368 92.834C73.5221 93.198 73.4148 93.618 73.4148 94.094C73.4148 94.57 73.5221 94.99 73.7368 95.354C73.9608 95.718 74.2641 96.0027 74.6468 96.208C75.0388 96.4133 75.4821 96.516 75.9768 96.516ZM89.2205 98.112C88.4739 98.112 87.7599 98 87.0785 97.776C86.3972 97.5427 85.8605 97.244 85.4685 96.88L85.9865 95.788C86.3599 96.1147 86.8359 96.3853 87.4145 96.6C87.9932 96.8147 88.5952 96.922 89.2205 96.922C89.7899 96.922 90.2519 96.8567 90.6065 96.726C90.9612 96.5953 91.2225 96.418 91.3905 96.194C91.5585 95.9607 91.6425 95.6993 91.6425 95.41C91.6425 95.074 91.5305 94.8033 91.3065 94.598C91.0919 94.3927 90.8072 94.2293 90.4525 94.108C90.1072 93.9773 89.7245 93.8653 89.3045 93.772C88.8845 93.6787 88.4599 93.5713 88.0305 93.45C87.6105 93.3193 87.2232 93.156 86.8685 92.96C86.5232 92.764 86.2432 92.5027 86.0285 92.176C85.8139 91.84 85.7065 91.4107 85.7065 90.888C85.7065 90.384 85.8372 89.922 86.0985 89.502C86.3692 89.0727 86.7799 88.732 87.3305 88.48C87.8905 88.2187 88.5999 88.088 89.4585 88.088C90.0279 88.088 90.5925 88.1627 91.1525 88.312C91.7125 88.4613 92.1979 88.676 92.6085 88.956L92.1465 90.076C91.7265 89.796 91.2832 89.5953 90.8165 89.474C90.3499 89.3433 89.8972 89.278 89.4585 89.278C88.9079 89.278 88.4552 89.348 88.1005 89.488C87.7459 89.628 87.4845 89.8147 87.3165 90.048C87.1579 90.2813 87.0785 90.5427 87.0785 90.832C87.0785 91.1773 87.1859 91.4527 87.4005 91.658C87.6245 91.8633 87.9092 92.0267 88.2545 92.148C88.6092 92.2693 88.9965 92.3813 89.4165 92.484C89.8365 92.5773 90.2565 92.6847 90.6765 92.806C91.1059 92.9273 91.4932 93.086 91.8385 93.282C92.1932 93.478 92.4779 93.7393 92.6925 94.066C92.9072 94.3927 93.0145 94.8127 93.0145 95.326C93.0145 95.8207 92.8792 96.2827 92.6085 96.712C92.3379 97.132 91.9179 97.4727 91.3485 97.734C90.7885 97.986 90.0792 98.112 89.2205 98.112ZM95.0491 100.8C94.6945 100.8 94.3491 100.739 94.0131 100.618C93.6771 100.506 93.3878 100.338 93.1451 100.114L93.7191 99.106C93.9058 99.2833 94.1111 99.4187 94.3351 99.512C94.5591 99.6053 94.7971 99.652 95.0491 99.652C95.3758 99.652 95.6465 99.568 95.8611 99.4C96.0758 99.232 96.2765 98.9333 96.4631 98.504L96.9251 97.482L97.0651 97.314L99.9771 90.58H101.293L97.6951 98.742C97.4805 99.2647 97.2378 99.6753 96.9671 99.974C96.7058 100.273 96.4165 100.483 96.0991 100.604C95.7818 100.735 95.4318 100.8 95.0491 100.8ZM96.8131 98.238L93.4251 90.58H94.8251L97.7091 97.188L96.8131 98.238ZM104.58 98.084C103.964 98.084 103.376 98 102.816 97.832C102.265 97.664 101.831 97.4587 101.514 97.216L102.074 96.152C102.391 96.3667 102.783 96.5487 103.25 96.698C103.716 96.8473 104.192 96.922 104.678 96.922C105.303 96.922 105.751 96.8333 106.022 96.656C106.302 96.4787 106.442 96.2313 106.442 95.914C106.442 95.6807 106.358 95.4987 106.19 95.368C106.022 95.2373 105.798 95.1393 105.518 95.074C105.247 95.0087 104.944 94.9527 104.608 94.906C104.272 94.85 103.936 94.7847 103.6 94.71C103.264 94.626 102.956 94.514 102.676 94.374C102.396 94.2247 102.172 94.024 102.004 93.772C101.836 93.5107 101.752 93.1653 101.752 92.736C101.752 92.288 101.878 91.896 102.13 91.56C102.382 91.224 102.736 90.9673 103.194 90.79C103.66 90.6033 104.211 90.51 104.846 90.51C105.331 90.51 105.821 90.5707 106.316 90.692C106.82 90.804 107.23 90.9673 107.548 91.182L106.974 92.246C106.638 92.022 106.288 91.868 105.924 91.784C105.56 91.7 105.196 91.658 104.832 91.658C104.244 91.658 103.805 91.756 103.516 91.952C103.226 92.1387 103.082 92.3813 103.082 92.68C103.082 92.932 103.166 93.128 103.334 93.268C103.511 93.3987 103.735 93.5013 104.006 93.576C104.286 93.6507 104.594 93.716 104.93 93.772C105.266 93.8187 105.602 93.884 105.938 93.968C106.274 94.0427 106.577 94.15 106.848 94.29C107.128 94.43 107.352 94.626 107.52 94.878C107.697 95.13 107.786 95.466 107.786 95.886C107.786 96.334 107.655 96.7213 107.394 97.048C107.132 97.3747 106.764 97.6313 106.288 97.818C105.812 97.9953 105.242 98.084 104.58 98.084ZM112.013 98.084C111.267 98.084 110.688 97.8833 110.277 97.482C109.867 97.0807 109.661 96.5067 109.661 95.76V88.956H111.005V95.704C111.005 96.1053 111.103 96.4133 111.299 96.628C111.505 96.8427 111.794 96.95 112.167 96.95C112.587 96.95 112.937 96.8333 113.217 96.6L113.637 97.566C113.432 97.7433 113.185 97.874 112.895 97.958C112.615 98.042 112.321 98.084 112.013 98.084ZM108.401 91.686V90.58H113.133V91.686H108.401ZM118.32 98.084C117.527 98.084 116.827 97.9207 116.22 97.594C115.623 97.2673 115.156 96.8193 114.82 96.25C114.494 95.6807 114.33 95.0273 114.33 94.29C114.33 93.5527 114.489 92.8993 114.806 92.33C115.133 91.7607 115.576 91.3173 116.136 91C116.706 90.6733 117.345 90.51 118.054 90.51C118.773 90.51 119.408 90.6687 119.958 90.986C120.509 91.3033 120.938 91.7513 121.246 92.33C121.564 92.8993 121.722 93.5667 121.722 94.332C121.722 94.388 121.718 94.4533 121.708 94.528C121.708 94.6027 121.704 94.6727 121.694 94.738H115.38V93.772H120.994L120.448 94.108C120.458 93.632 120.36 93.2073 120.154 92.834C119.949 92.4607 119.664 92.1713 119.3 91.966C118.946 91.7513 118.53 91.644 118.054 91.644C117.588 91.644 117.172 91.7513 116.808 91.966C116.444 92.1713 116.16 92.4653 115.954 92.848C115.749 93.2213 115.646 93.6507 115.646 94.136V94.36C115.646 94.8547 115.758 95.298 115.982 95.69C116.216 96.0727 116.538 96.3713 116.948 96.586C117.359 96.8007 117.83 96.908 118.362 96.908C118.801 96.908 119.198 96.8333 119.552 96.684C119.916 96.5347 120.234 96.3107 120.504 96.012L121.246 96.88C120.91 97.272 120.49 97.5707 119.986 97.776C119.492 97.9813 118.936 98.084 118.32 98.084ZM132.87 90.51C133.468 90.51 133.995 90.6267 134.452 90.86C134.91 91.0933 135.264 91.448 135.516 91.924C135.778 92.4 135.908 93.002 135.908 93.73V98H134.564V93.884C134.564 93.1653 134.396 92.624 134.06 92.26C133.724 91.896 133.253 91.714 132.646 91.714C132.198 91.714 131.806 91.8073 131.47 91.994C131.134 92.1807 130.873 92.456 130.686 92.82C130.509 93.184 130.42 93.6367 130.42 94.178V98H129.076V93.884C129.076 93.1653 128.908 92.624 128.572 92.26C128.246 91.896 127.774 91.714 127.158 91.714C126.72 91.714 126.332 91.8073 125.996 91.994C125.66 92.1807 125.399 92.456 125.212 92.82C125.026 93.184 124.932 93.6367 124.932 94.178V98H123.588V90.58H124.876V92.554L124.666 92.05C124.9 91.5647 125.259 91.1867 125.744 90.916C126.23 90.6453 126.794 90.51 127.438 90.51C128.148 90.51 128.759 90.6873 129.272 91.042C129.786 91.3873 130.122 91.9147 130.28 92.624L129.734 92.4C129.958 91.8307 130.35 91.3733 130.91 91.028C131.47 90.6827 132.124 90.51 132.87 90.51Z" fill="white"/>
</svg>
