<svg width="60" height="60" viewBox="0 0 60 60" fill="none" xmlns="http://www.w3.org/2000/svg">
<path opacity="0.21" fill-rule="evenodd" clip-rule="evenodd" d="M0 30V37C0 49.7025 10.2975 60 23 60H30H37C49.7025 60 60 49.7025 60 37V30V23C60 10.2975 49.7025 0 37 0H30H23C10.2975 0 0 10.2975 0 23V30Z" fill="#4AD991"/>
<path d="M33.9603 21.8932C33.8707 21.5651 33.655 21.2857 33.3603 21.1159C33.0657 20.9461 32.7158 20.8996 32.387 20.9865L27.8537 22.1999L21.9337 16.7065L20.2937 17.1465L23.8403 23.2665L19.587 24.3999L17.907 23.0932L16.667 23.4265L18.8803 27.2665L33.0403 23.4799C33.7337 23.2799 34.1337 22.5732 33.9603 21.8932ZM42.0003 27.3332L40.667 29.9999H34.0003L32.667 27.3332L34.0003 25.9999H36.667V23.3332H38.0003V25.9999H40.667L42.0003 27.3332ZM43.3337 40.6665V43.3332H16.667V40.6665H34.0003V31.3332H40.667V40.6665H43.3337Z" fill="#30CA7D"/>
</svg>
