<svg width="60" height="60" viewBox="0 0 60 60" fill="none" xmlns="http://www.w3.org/2000/svg">
<path opacity="0.3" fill-rule="evenodd" clip-rule="evenodd" d="M0 30V37C0 49.7025 10.2975 60 23 60H30H37C49.7025 60 60 49.7025 60 37V30V23C60 10.2975 49.7025 0 37 0H30H23C10.2975 0 0 10.2975 0 23V30Z" fill="#FF9066"/>
<path d="M23.3337 41.9998C22.6003 41.9998 21.9728 41.7389 21.451 41.2172C20.9292 40.6954 20.6679 40.0674 20.667 39.3332V24.6665C20.667 23.9332 20.9283 23.3056 21.451 22.7838C21.9737 22.2621 22.6012 22.0007 23.3337 21.9998H26.0003V19.3332C26.0003 18.5998 26.2617 17.9723 26.7843 17.4505C27.307 16.9287 27.9345 16.6674 28.667 16.6665H31.3337C32.067 16.6665 32.695 16.9278 33.2177 17.4505C33.7403 17.9732 34.0012 18.6007 34.0003 19.3332V21.9998H36.667C37.4003 21.9998 38.0283 22.2612 38.551 22.7838C39.0737 23.3065 39.3345 23.9341 39.3337 24.6665V39.3332C39.3337 40.0665 39.0728 40.6945 38.551 41.2172C38.0292 41.7398 37.4012 42.0007 36.667 41.9998C36.667 42.3776 36.539 42.6945 36.283 42.9505C36.027 43.2065 35.7105 43.3341 35.3337 43.3332C34.9568 43.3323 34.6403 43.2043 34.3843 42.9492C34.1283 42.6941 34.0003 42.3776 34.0003 41.9998H26.0003C26.0003 42.3776 25.8723 42.6945 25.6163 42.9505C25.3603 43.2065 25.0439 43.3341 24.667 43.3332C24.2901 43.3323 23.9737 43.2043 23.7177 42.9492C23.4617 42.6941 23.3337 42.3776 23.3337 41.9998ZM26.0003 37.9998H28.667V25.9998H26.0003V37.9998ZM31.3337 37.9998H34.0003V25.9998H31.3337V37.9998ZM28.667 21.9998H31.3337V19.3332H28.667V21.9998Z" fill="#EB784B"/>
</svg>
