<svg width="60" height="60" viewBox="0 0 60 60" fill="none" xmlns="http://www.w3.org/2000/svg">
<path opacity="0.21" fill-rule="evenodd" clip-rule="evenodd" d="M0 30V37C0 49.7025 10.2975 60 23 60H30H37C49.7025 60 60 49.7025 60 37V30V23C60 10.2975 49.7025 0 37 0H30H23C10.2975 0 0 10.2975 0 23V30Z" fill="#FD8CA7"/>
<path d="M33.9997 19.3335C36.8286 19.3335 39.5418 20.4573 41.5421 22.4577C43.5425 24.4581 44.6663 27.1712 44.6663 30.0002C44.6663 32.8291 43.5425 35.5422 41.5421 37.5426C39.5418 39.543 36.8286 40.6668 33.9997 40.6668C31.1707 40.6668 28.4576 39.543 26.4572 37.5426C24.4568 35.5422 23.333 32.8291 23.333 30.0002C23.333 27.1712 24.4568 24.4581 26.4572 22.4577C28.4576 20.4573 31.1707 19.3335 33.9997 19.3335ZM33.9997 22.0002C31.8779 22.0002 29.8431 22.843 28.3428 24.3433C26.8425 25.8436 25.9997 27.8784 25.9997 30.0002C25.9997 32.1219 26.8425 34.1567 28.3428 35.657C29.8431 37.1573 31.8779 38.0002 33.9997 38.0002C36.1214 38.0002 38.1562 37.1573 39.6565 35.657C41.1568 34.1567 41.9997 32.1219 41.9997 30.0002C41.9997 27.8784 41.1568 25.8436 39.6565 24.3433C38.1562 22.843 36.1214 22.0002 33.9997 22.0002ZM32.6663 24.6668H34.6663V29.7068L37.773 32.8135L36.3597 34.2268L32.6663 30.5335V24.6668ZM16.6663 38.0002C16.3127 38.0002 15.9736 37.8597 15.7235 37.6096C15.4735 37.3596 15.333 37.0205 15.333 36.6668C15.333 36.3132 15.4735 35.9741 15.7235 35.724C15.9736 35.474 16.3127 35.3335 16.6663 35.3335H21.773C22.1863 36.2802 22.7197 37.1735 23.333 38.0002H16.6663ZM17.9997 31.3335C17.6461 31.3335 17.3069 31.193 17.0569 30.943C16.8068 30.6929 16.6663 30.3538 16.6663 30.0002C16.6663 29.6465 16.8068 29.3074 17.0569 29.0574C17.3069 28.8073 17.6461 28.6668 17.9997 28.6668H20.733L20.6663 30.0002L20.733 31.3335H17.9997ZM19.333 24.6668C18.9794 24.6668 18.6402 24.5264 18.3902 24.2763C18.1402 24.0263 17.9997 23.6871 17.9997 23.3335C17.9997 22.9799 18.1402 22.6407 18.3902 22.3907C18.6402 22.1406 18.9794 22.0002 19.333 22.0002H23.333C22.7197 22.8268 22.1863 23.7202 21.773 24.6668H19.333Z" fill="#CD6881"/>
</svg>
