<svg width="60" height="60" viewBox="0 0 60 60" fill="none" xmlns="http://www.w3.org/2000/svg">
<path opacity="0.21" fill-rule="evenodd" clip-rule="evenodd" d="M0 30V37C0 49.7025 10.2975 60 23 60H30H37C49.7025 60 60 49.7025 60 37V30V23C60 10.2975 49.7025 0 37 0H30H23C10.2975 0 0 10.2975 0 23V30Z" fill="#39E2FB"/>
<mask id="mask0_231_2471" style="mask-type:luminance" maskUnits="userSpaceOnUse" x="16" y="19" width="28" height="22">
<path d="M32.6663 19.3335H27.333C22.305 19.3335 19.7903 19.3335 18.229 20.8962C17.1037 22.0202 16.789 23.6388 16.701 26.3335H43.2984C43.2104 23.6388 42.8957 22.0202 41.7703 20.8962C40.209 19.3335 37.6943 19.3335 32.6663 19.3335ZM27.333 40.6668H32.6663C37.6943 40.6668 40.209 40.6668 41.7703 39.1042C43.3317 37.5415 43.333 35.0282 43.333 30.0002C43.333 29.4117 43.3321 28.8562 43.3303 28.3335H16.669C16.6663 28.8562 16.6655 29.4117 16.6663 30.0002C16.6663 35.0282 16.6663 37.5428 18.229 39.1042C19.7917 40.6655 22.305 40.6668 27.333 40.6668Z" fill="white"/>
<path fill-rule="evenodd" clip-rule="evenodd" d="M21 35.3335C21 35.0683 21.1054 34.8139 21.2929 34.6264C21.4804 34.4389 21.7348 34.3335 22 34.3335H27.3333C27.5985 34.3335 27.8529 34.4389 28.0404 34.6264C28.228 34.8139 28.3333 35.0683 28.3333 35.3335C28.3333 35.5987 28.228 35.8531 28.0404 36.0406C27.8529 36.2281 27.5985 36.3335 27.3333 36.3335H22C21.7348 36.3335 21.4804 36.2281 21.2929 36.0406C21.1054 35.8531 21 35.5987 21 35.3335ZM29.6667 35.3335C29.6667 35.0683 29.772 34.8139 29.9596 34.6264C30.1471 34.4389 30.4014 34.3335 30.6667 34.3335H32.6667C32.9319 34.3335 33.1862 34.4389 33.3738 34.6264C33.5613 34.8139 33.6667 35.0683 33.6667 35.3335C33.6667 35.5987 33.5613 35.8531 33.3738 36.0406C33.1862 36.2281 32.9319 36.3335 32.6667 36.3335H30.6667C30.4014 36.3335 30.1471 36.2281 29.9596 36.0406C29.772 35.8531 29.6667 35.5987 29.6667 35.3335Z" fill="black"/>
</mask>
<g mask="url(#mask0_231_2471)">
<path d="M14 14H46V46H14V14Z" fill="#28AFC2"/>
</g>
</svg>
